# xmcd
#
# Track frame offsets:
#	150
#	20773
#	33443
#	52155
#	69545
#	88183
#	105603
#	119603
#	132813
#	154523
#
# Disc length: 2256 seconds
#
# Revision: 4
# Processed by: cddbd v1.5.2PL0 Copyright (c) Steve Scherf et al.
# Submitted via: audiograbber 1.83.01
#
DISCID=8908ce0a
DTITLE=Bruce Carroll - The Great Exchange
DYEAR=1990
DGENRE=Christian
TTITLE0=Living In The Pages
TTITLE1=Lay It On Down
TTITLE2=Elm Street
TTITLE3=Who Will Be Jesus
TTITLE4=Average Joe
TTITLE5=The Great Exchange
TTITLE6=Wake The Dead
TTITLE7=I Can't Love Without You
TTITLE8=Moment Of Truth
TTITLE9=You Never Know
EXTD=
EXTT0=
EXTT1=
EXTT2=
EXTT3=
EXTT4=
EXTT5=
EXTT6=
EXTT7=
EXTT8=
EXTT9=
PLAYORDER=
